<?xml version="1.0" encoding="UTF-8"?>
<!DOCTYPE svg PUBLIC "-//W3C//DTD SVG 1.1//EN" "http://www.w3.org/Graphics/SVG/1.1/DTD/svg11.dtd">
<svg xmlns="http://www.w3.org/2000/svg" version="1.1" width="360px" height="90px" style="shape-rendering:geometricPrecision; text-rendering:geometricPrecision; image-rendering:optimizeQuality; fill-rule:evenodd; clip-rule:evenodd" xmlns:xlink="http://www.w3.org/1999/xlink">
<g><path style="opacity:0.867" fill="#fefffe" d="M 64.5,13.5 C 67.5184,13.3354 70.5184,13.502 73.5,14C 77.8814,18.0822 77.3814,21.2489 72,23.5C 69.6794,22.5128 68.0128,20.8461 67,18.5C 65.0153,22.2837 63.5153,26.2837 62.5,30.5C 64.0453,31.4519 65.712,31.7852 67.5,31.5C 67.5,32.8333 67.5,34.1667 67.5,35.5C 65.2075,35.2436 63.0408,35.5769 61,36.5C 58.7034,47.3729 55.0367,57.7062 50,67.5C 45.2907,73.7696 39.124,75.9363 31.5,74C 29.3813,71.7815 29.048,69.2815 30.5,66.5C 32.4325,65.4798 34.4325,65.3131 36.5,66C 37.2076,68.7676 38.7076,69.6009 41,68.5C 44.2503,57.6609 47.4169,46.8276 50.5,36C 49.2068,35.51 47.8734,35.3433 46.5,35.5C 46.5,34.1667 46.5,32.8333 46.5,31.5C 48.1992,31.6602 49.8659,31.4935 51.5,31C 53.566,23.3206 57.8994,17.4873 64.5,13.5 Z"/></g>
<g><path style="opacity:0.867" fill="#fefffe" d="M 140.5,13.5 C 143.518,13.3354 146.518,13.502 149.5,14C 153.881,18.0822 153.381,21.2489 148,23.5C 145.679,22.5128 144.013,20.8461 143,18.5C 141.015,22.2837 139.515,26.2837 138.5,30.5C 140.045,31.4519 141.712,31.7852 143.5,31.5C 143.5,32.8333 143.5,34.1667 143.5,35.5C 141.208,35.2436 139.041,35.5769 137,36.5C 134.703,47.3729 131.037,57.7062 126,67.5C 121.291,73.7696 115.124,75.9363 107.5,74C 105.381,71.7815 105.048,69.2815 106.5,66.5C 108.432,65.4798 110.432,65.3131 112.5,66C 113.208,68.7676 114.708,69.6009 117,68.5C 120.25,57.6609 123.417,46.8276 126.5,36C 125.207,35.51 123.873,35.3433 122.5,35.5C 122.5,34.1667 122.5,32.8333 122.5,31.5C 124.199,31.6602 125.866,31.4935 127.5,31C 129.566,23.3206 133.899,17.4873 140.5,13.5 Z"/></g>
<g><path style="opacity:0.857" fill="#fefffe" d="M 343.5,20.5 C 345.167,20.5 346.833,20.5 348.5,20.5C 348.208,24.2073 347.208,27.7073 345.5,31C 347.473,31.4955 349.473,31.6621 351.5,31.5C 351.67,32.8221 351.337,33.9887 350.5,35C 347.953,35.0674 345.786,35.9007 344,37.5C 342.337,43.8174 340.837,50.1507 339.5,56.5C 342.084,56.4312 344.084,55.2645 345.5,53C 347.167,52.3333 348.833,52.3333 350.5,53C 346.578,61.128 340.245,64.128 331.5,62C 329.848,60.53 328.848,58.6967 328.5,56.5C 330.004,49.4917 332.004,42.6583 334.5,36C 332.866,35.5065 331.199,35.3398 329.5,35.5C 329.351,34.448 329.517,33.448 330,32.5C 333.5,31.2241 336.667,29.3908 339.5,27C 341.232,25.0281 342.565,22.8614 343.5,20.5 Z"/></g>
<g><path style="opacity:0.847" fill="#fefffe" d="M 20.5,30.5 C 25.1785,30.3342 29.8452,30.5008 34.5,31C 39.7465,32.2371 41.5798,35.4038 40,40.5C 37.4556,43.0801 34.9556,43.0801 32.5,40.5C 31.627,38.5866 30.627,36.7533 29.5,35C 27.5594,34.2571 25.7261,34.4238 24,35.5C 23.3333,36.5 23.3333,37.5 24,38.5C 26.2336,40.6998 28.7336,42.5331 31.5,44C 38.9471,51.5507 37.9471,57.5507 28.5,62C 23.8333,62.6667 19.1667,62.6667 14.5,62C 8.64069,60.7808 6.47402,57.2808 8,51.5C 10.6667,48.8333 13.3333,48.8333 16,51.5C 16.6184,56.8033 19.4518,58.9699 24.5,58C 25.3567,57.3109 26.0233,56.4776 26.5,55.5C 22.0837,51.5132 17.9171,47.1799 14,42.5C 13.3121,36.8712 15.4788,32.8712 20.5,30.5 Z"/></g>
<g><path style="opacity:0.828" fill="#fefffe" d="M 75.5,30.5 C 80.9506,30.245 86.2839,30.9117 91.5,32.5C 93.5771,31.0629 95.9105,30.3962 98.5,30.5C 98.0374,36.252 95.3707,40.752 90.5,44C 85.8333,46.6667 81.1667,49.3333 76.5,52C 80.728,53.4123 85.0613,54.2456 89.5,54.5C 87.8884,50.6051 89.2217,48.7718 93.5,49C 94.3567,49.6891 95.0233,50.5224 95.5,51.5C 94.6298,56.423 91.9631,59.923 87.5,62C 81.898,62.7232 76.398,62.2232 71,60.5C 68.941,61.6182 66.7743,62.2849 64.5,62.5C 64.4598,59.5755 65.2932,56.9088 67,54.5C 72.7513,49.5831 78.918,45.2497 85.5,41.5C 81.6054,39.5173 77.6054,38.8507 73.5,39.5C 75.0523,44.1123 73.5523,45.4456 69,43.5C 68.0111,37.4773 70.1778,33.144 75.5,30.5 Z"/></g>
<g><path style="opacity:0.847" fill="#fefffe" d="M 155.5,30.5 C 173.896,28.3828 180.396,36.0494 175,53.5C 168.843,61.6653 160.676,64.4986 150.5,62C 141.299,56.694 139.132,49.194 144,39.5C 147.045,35.4057 150.878,32.4057 155.5,30.5 Z M 159.5,34.5 C 164.854,33.9906 167.187,36.4906 166.5,42C 166.314,47.2425 164.814,52.0758 162,56.5C 155.501,59.9953 152.334,57.9953 152.5,50.5C 152.667,44.1701 155.001,38.8368 159.5,34.5 Z"/></g>
<g><path style="opacity:0.839" fill="#fefffe" d="M 188.5,30.5 C 191.187,30.3359 193.854,30.5026 196.5,31C 198.066,33.9304 198.9,37.0971 199,40.5C 201.039,32.7594 205.872,29.5928 213.5,31C 214.61,33.7372 214.777,36.5706 214,39.5C 210.385,43.7649 207.719,43.0982 206,37.5C 201.002,44.4969 197.335,52.1635 195,60.5C 191.606,61.4558 188.106,61.7892 184.5,61.5C 186.166,53.5014 187.833,45.5014 189.5,37.5C 187.176,37.6615 185.509,38.8282 184.5,41C 183.056,41.7805 181.723,41.6139 180.5,40.5C 182.112,36.2316 184.779,32.8983 188.5,30.5 Z"/></g>
<g><path style="opacity:0.854" fill="#fefffe" d="M 225.5,30.5 C 228.579,30.2601 231.579,30.5934 234.5,31.5C 235.318,34.1071 235.818,36.7737 236,39.5C 240.98,32.0905 247.814,29.2572 256.5,31C 257,31.5 257.5,32 258,32.5C 258.333,35.1667 258.667,37.8333 259,40.5C 262.251,36.5783 266.084,33.4117 270.5,31C 274.317,29.9766 277.817,30.4766 281,32.5C 281.402,33.8721 281.902,35.2054 282.5,36.5C 280.127,43.1049 278.294,49.7716 277,56.5C 278.743,54.4147 280.743,52.748 283,51.5C 283.833,51.8333 284.667,52.1667 285.5,52.5C 281.644,60.5127 275.477,63.5127 267,61.5C 266.5,60 266,58.5 265.5,57C 267.558,50.2219 269.891,43.5552 272.5,37C 271.833,36.8333 271.167,36.6667 270.5,36.5C 261.331,42.4886 255.331,50.8219 252.5,61.5C 248.774,61.8226 245.107,61.4892 241.5,60.5C 243.755,53.3152 246.088,46.1486 248.5,39C 248.333,37.5 247.5,36.6667 246,36.5C 237.504,42.678 231.671,50.8447 228.5,61C 225.183,61.4983 221.85,61.665 218.5,61.5C 220.423,53.3949 222.757,45.3949 225.5,37.5C 225.167,37.1667 224.833,36.8333 224.5,36.5C 222.747,38.2611 220.747,39.5944 218.5,40.5C 217.833,40.1667 217.167,39.8333 216.5,39.5C 218.549,35.4506 221.549,32.4506 225.5,30.5 Z"/></g>
<g><path style="opacity:0.857" fill="#fefffe" d="M 302.5,30.5 C 307.585,29.9885 312.419,30.6551 317,32.5C 319.434,31.6777 321.934,31.3444 324.5,31.5C 322.275,39.3447 319.941,47.1781 317.5,55C 317.667,55.5 317.833,56 318,56.5C 319.022,55.646 319.855,54.646 320.5,53.5C 322.167,52.1667 323.833,52.1667 325.5,53.5C 322.743,60.4451 317.743,63.2784 310.5,62C 308.741,60.992 307.574,59.492 307,57.5C 302.045,62.743 296.378,63.743 290,60.5C 286.149,47.1972 290.316,37.1972 302.5,30.5 Z M 306.5,34.5 C 311.151,35.1742 312.651,37.8408 311,42.5C 309.774,48.2989 306.607,52.6322 301.5,55.5C 300.522,55.0233 299.689,54.3567 299,53.5C 298.182,45.8098 300.682,39.4765 306.5,34.5 Z"/></g>
</svg>
